<mxfile host="app.diagrams.net" modified="2024-03-18T09:30:21.819Z" agent="Mozilla/5.0 (Windows NT 10.0; Win64; x64; rv:109.0) Gecko/20100101 Firefox/115.0" etag="A7CqtrC8JACSkNwS6lRO" version="24.0.7" type="device">
  <diagram name="Page-1" id="rB4wQMG6NRCHfnu65zbY">
    <mxGraphModel dx="523" dy="1437" grid="1" gridSize="10" guides="1" tooltips="1" connect="1" arrows="1" fold="1" page="1" pageScale="1" pageWidth="827" pageHeight="1169" math="0" shadow="0">
      <root>
        <mxCell id="0" />
        <mxCell id="1" parent="0" />
        <mxCell id="my6AYqyxt2HDkGoGhjge-17" value="" style="endArrow=classic;html=1;rounded=0;" parent="1" source="cghG7LccINdFrMlFdnHV-65" edge="1">
          <mxGeometry width="50" height="50" relative="1" as="geometry">
            <mxPoint x="1210" y="760" as="sourcePoint" />
            <mxPoint x="1010" y="900" as="targetPoint" />
            <Array as="points">
              <mxPoint x="1010" y="760" />
            </Array>
          </mxGeometry>
        </mxCell>
        <mxCell id="my6AYqyxt2HDkGoGhjge-1" value="healthsite.io" style="whiteSpace=wrap;html=1;aspect=fixed;" parent="1" vertex="1">
          <mxGeometry x="630" y="420" width="80" height="80" as="geometry" />
        </mxCell>
        <mxCell id="my6AYqyxt2HDkGoGhjge-2" value="HOTOSM" style="whiteSpace=wrap;html=1;aspect=fixed;" parent="1" vertex="1">
          <mxGeometry x="750" y="420" width="80" height="80" as="geometry" />
        </mxCell>
        <mxCell id="my6AYqyxt2HDkGoGhjge-3" value="mspbs" style="whiteSpace=wrap;html=1;aspect=fixed;" parent="1" vertex="1">
          <mxGeometry x="870" y="420" width="80" height="80" as="geometry" />
        </mxCell>
        <mxCell id="my6AYqyxt2HDkGoGhjge-4" value="" style="endArrow=classic;html=1;rounded=0;exitX=0.5;exitY=1;exitDx=0;exitDy=0;entryX=0.5;entryY=0;entryDx=0;entryDy=0;" parent="1" source="my6AYqyxt2HDkGoGhjge-1" target="my6AYqyxt2HDkGoGhjge-5" edge="1">
          <mxGeometry width="50" height="50" relative="1" as="geometry">
            <mxPoint x="480" y="640" as="sourcePoint" />
            <mxPoint x="530" y="590" as="targetPoint" />
          </mxGeometry>
        </mxCell>
        <mxCell id="cghG7LccINdFrMlFdnHV-25" value="" style="edgeStyle=orthogonalEdgeStyle;rounded=0;orthogonalLoop=1;jettySize=auto;html=1;" parent="1" source="my6AYqyxt2HDkGoGhjge-5" target="cghG7LccINdFrMlFdnHV-23" edge="1">
          <mxGeometry relative="1" as="geometry" />
        </mxCell>
        <mxCell id="my6AYqyxt2HDkGoGhjge-5" value="Facilities &lt;br&gt;dirty" style="whiteSpace=wrap;html=1;aspect=fixed;" parent="1" vertex="1">
          <mxGeometry x="680" y="560" width="80" height="80" as="geometry" />
        </mxCell>
        <mxCell id="my6AYqyxt2HDkGoGhjge-6" value="" style="endArrow=classic;html=1;rounded=0;entryX=0.5;entryY=0;entryDx=0;entryDy=0;exitX=0.5;exitY=1;exitDx=0;exitDy=0;" parent="1" source="my6AYqyxt2HDkGoGhjge-2" target="my6AYqyxt2HDkGoGhjge-5" edge="1">
          <mxGeometry width="50" height="50" relative="1" as="geometry">
            <mxPoint x="640" y="550" as="sourcePoint" />
            <mxPoint x="690" y="500" as="targetPoint" />
          </mxGeometry>
        </mxCell>
        <mxCell id="my6AYqyxt2HDkGoGhjge-7" value="" style="endArrow=classic;html=1;rounded=0;exitX=0.5;exitY=1;exitDx=0;exitDy=0;entryX=0.5;entryY=0;entryDx=0;entryDy=0;" parent="1" source="my6AYqyxt2HDkGoGhjge-3" target="my6AYqyxt2HDkGoGhjge-5" edge="1">
          <mxGeometry width="50" height="50" relative="1" as="geometry">
            <mxPoint x="640" y="550" as="sourcePoint" />
            <mxPoint x="790" y="660" as="targetPoint" />
          </mxGeometry>
        </mxCell>
        <mxCell id="my6AYqyxt2HDkGoGhjge-8" value="" style="whiteSpace=wrap;html=1;aspect=fixed;" parent="1" vertex="1">
          <mxGeometry x="1170" y="420.5" width="80" height="80" as="geometry" />
        </mxCell>
        <mxCell id="my6AYqyxt2HDkGoGhjge-10" value="&lt;div&gt;Borders&lt;/div&gt;" style="whiteSpace=wrap;html=1;aspect=fixed;" parent="1" vertex="1">
          <mxGeometry x="1290" y="420.5" width="80" height="80" as="geometry" />
        </mxCell>
        <mxCell id="my6AYqyxt2HDkGoGhjge-14" value="" style="endArrow=classic;html=1;rounded=0;exitX=0.5;exitY=1;exitDx=0;exitDy=0;" parent="1" source="my6AYqyxt2HDkGoGhjge-10" target="cghG7LccINdFrMlFdnHV-65" edge="1">
          <mxGeometry width="50" height="50" relative="1" as="geometry">
            <mxPoint x="1180" y="631" as="sourcePoint" />
            <mxPoint x="1210" y="550" as="targetPoint" />
          </mxGeometry>
        </mxCell>
        <mxCell id="my6AYqyxt2HDkGoGhjge-15" value="&lt;div&gt;&lt;b&gt;Travel Time&lt;/b&gt;&lt;/div&gt;&lt;div&gt;(Raster)&lt;b&gt;&lt;br&gt;&lt;/b&gt;&lt;/div&gt;" style="whiteSpace=wrap;html=1;aspect=fixed;" parent="1" vertex="1">
          <mxGeometry x="970" y="900" width="80" height="80" as="geometry" />
        </mxCell>
        <mxCell id="my6AYqyxt2HDkGoGhjge-16" value="" style="endArrow=classic;html=1;rounded=0;exitX=1;exitY=0.5;exitDx=0;exitDy=0;" parent="1" source="cghG7LccINdFrMlFdnHV-23" edge="1">
          <mxGeometry width="50" height="50" relative="1" as="geometry">
            <mxPoint x="810" y="760" as="sourcePoint" />
            <mxPoint x="1010" y="900" as="targetPoint" />
            <Array as="points">
              <mxPoint x="1010" y="760" />
            </Array>
          </mxGeometry>
        </mxCell>
        <mxCell id="my6AYqyxt2HDkGoGhjge-18" value="cnes" style="whiteSpace=wrap;html=1;aspect=fixed;" parent="1" vertex="1">
          <mxGeometry x="510" y="420" width="80" height="80" as="geometry" />
        </mxCell>
        <mxCell id="my6AYqyxt2HDkGoGhjge-20" value="" style="endArrow=classic;html=1;rounded=0;entryX=0.5;entryY=0;entryDx=0;entryDy=0;exitX=0.5;exitY=1;exitDx=0;exitDy=0;" parent="1" source="my6AYqyxt2HDkGoGhjge-18" target="my6AYqyxt2HDkGoGhjge-5" edge="1">
          <mxGeometry width="50" height="50" relative="1" as="geometry">
            <mxPoint x="980" y="710" as="sourcePoint" />
            <mxPoint x="1030" y="660" as="targetPoint" />
          </mxGeometry>
        </mxCell>
        <mxCell id="cghG7LccINdFrMlFdnHV-1" value="paved " style="rounded=0;whiteSpace=wrap;html=1;" parent="1" vertex="1">
          <mxGeometry x="1170" y="420.5" width="80" height="80" as="geometry" />
        </mxCell>
        <mxCell id="cghG7LccINdFrMlFdnHV-6" value="Cost Distance" style="text;html=1;align=center;verticalAlign=middle;resizable=0;points=[];autosize=1;strokeColor=none;fillColor=none;" parent="1" vertex="1">
          <mxGeometry x="1010" y="810" width="100" height="30" as="geometry" />
        </mxCell>
        <mxCell id="cghG7LccINdFrMlFdnHV-9" value="geoBoundries&lt;br&gt;(shapefile)" style="whiteSpace=wrap;html=1;aspect=fixed;" parent="1" vertex="1">
          <mxGeometry x="1290" y="255.5" width="80" height="80" as="geometry" />
        </mxCell>
        <mxCell id="cghG7LccINdFrMlFdnHV-10" value="" style="endArrow=classic;html=1;rounded=0;entryX=0.5;entryY=0;entryDx=0;entryDy=0;exitX=0.5;exitY=1;exitDx=0;exitDy=0;" parent="1" source="cghG7LccINdFrMlFdnHV-9" target="my6AYqyxt2HDkGoGhjge-10" edge="1">
          <mxGeometry width="50" height="50" relative="1" as="geometry">
            <mxPoint x="990" y="510.5" as="sourcePoint" />
            <mxPoint x="1040" y="460.5" as="targetPoint" />
          </mxGeometry>
        </mxCell>
        <mxCell id="cghG7LccINdFrMlFdnHV-11" value="OSM Roads&lt;br&gt;(shapefile)" style="whiteSpace=wrap;html=1;aspect=fixed;" parent="1" vertex="1">
          <mxGeometry x="1100" y="255.5" width="80" height="80" as="geometry" />
        </mxCell>
        <mxCell id="cghG7LccINdFrMlFdnHV-12" value="" style="endArrow=classic;html=1;rounded=0;entryX=0.5;entryY=0;entryDx=0;entryDy=0;exitX=0.5;exitY=1;exitDx=0;exitDy=0;" parent="1" source="cghG7LccINdFrMlFdnHV-11" target="cghG7LccINdFrMlFdnHV-1" edge="1">
          <mxGeometry width="50" height="50" relative="1" as="geometry">
            <mxPoint x="990" y="510.5" as="sourcePoint" />
            <mxPoint x="1040" y="460.5" as="targetPoint" />
          </mxGeometry>
        </mxCell>
        <mxCell id="cghG7LccINdFrMlFdnHV-14" value="healthsite.io per country (3 shapefiles)" style="whiteSpace=wrap;html=1;aspect=fixed;" parent="1" vertex="1">
          <mxGeometry x="630" y="255" width="80" height="80" as="geometry" />
        </mxCell>
        <mxCell id="cghG7LccINdFrMlFdnHV-15" value="" style="endArrow=classic;html=1;rounded=0;entryX=0.5;entryY=0;entryDx=0;entryDy=0;exitX=0.5;exitY=1;exitDx=0;exitDy=0;" parent="1" source="cghG7LccINdFrMlFdnHV-14" target="my6AYqyxt2HDkGoGhjge-1" edge="1">
          <mxGeometry width="50" height="50" relative="1" as="geometry">
            <mxPoint x="860" y="510" as="sourcePoint" />
            <mxPoint x="910" y="460" as="targetPoint" />
            <Array as="points">
              <mxPoint x="670" y="350" />
            </Array>
          </mxGeometry>
        </mxCell>
        <mxCell id="cghG7LccINdFrMlFdnHV-16" value="HOTOSM per country (6 shapefiles)" style="whiteSpace=wrap;html=1;aspect=fixed;" parent="1" vertex="1">
          <mxGeometry x="750" y="255" width="80" height="80" as="geometry" />
        </mxCell>
        <mxCell id="cghG7LccINdFrMlFdnHV-18" value="" style="endArrow=classic;html=1;rounded=0;entryX=0.5;entryY=0;entryDx=0;entryDy=0;exitX=0.5;exitY=1;exitDx=0;exitDy=0;" parent="1" source="cghG7LccINdFrMlFdnHV-16" target="my6AYqyxt2HDkGoGhjge-2" edge="1">
          <mxGeometry width="50" height="50" relative="1" as="geometry">
            <mxPoint x="690" y="355" as="sourcePoint" />
            <mxPoint x="690" y="390" as="targetPoint" />
          </mxGeometry>
        </mxCell>
        <mxCell id="cghG7LccINdFrMlFdnHV-19" value="cnes (1 table)" style="whiteSpace=wrap;html=1;aspect=fixed;" parent="1" vertex="1">
          <mxGeometry x="510" y="255" width="80" height="80" as="geometry" />
        </mxCell>
        <mxCell id="cghG7LccINdFrMlFdnHV-20" value="mspbs (1 table)" style="whiteSpace=wrap;html=1;aspect=fixed;" parent="1" vertex="1">
          <mxGeometry x="870" y="255" width="80" height="80" as="geometry" />
        </mxCell>
        <mxCell id="cghG7LccINdFrMlFdnHV-21" value="" style="endArrow=classic;html=1;rounded=0;entryX=0.5;entryY=0;entryDx=0;entryDy=0;exitX=0.5;exitY=1;exitDx=0;exitDy=0;" parent="1" source="cghG7LccINdFrMlFdnHV-19" target="my6AYqyxt2HDkGoGhjge-18" edge="1">
          <mxGeometry width="50" height="50" relative="1" as="geometry">
            <mxPoint x="680" y="345" as="sourcePoint" />
            <mxPoint x="680" y="380" as="targetPoint" />
            <Array as="points">
              <mxPoint x="550" y="350" />
            </Array>
          </mxGeometry>
        </mxCell>
        <mxCell id="cghG7LccINdFrMlFdnHV-22" value="" style="endArrow=classic;html=1;rounded=0;entryX=0.5;entryY=0;entryDx=0;entryDy=0;exitX=0.5;exitY=1;exitDx=0;exitDy=0;" parent="1" source="cghG7LccINdFrMlFdnHV-20" target="my6AYqyxt2HDkGoGhjge-3" edge="1">
          <mxGeometry width="50" height="50" relative="1" as="geometry">
            <mxPoint x="690" y="355" as="sourcePoint" />
            <mxPoint x="690" y="390" as="targetPoint" />
            <Array as="points" />
          </mxGeometry>
        </mxCell>
        <mxCell id="cghG7LccINdFrMlFdnHV-28" value="" style="endArrow=none;dashed=1;html=1;rounded=0;" parent="1" edge="1">
          <mxGeometry width="50" height="50" relative="1" as="geometry">
            <mxPoint x="1009.91" y="255" as="sourcePoint" />
            <mxPoint x="1009" y="630" as="targetPoint" />
          </mxGeometry>
        </mxCell>
        <mxCell id="cghG7LccINdFrMlFdnHV-23" value="&lt;div&gt;&lt;b&gt;Facilities&lt;/b&gt;&lt;/div&gt;(Shapefile)" style="whiteSpace=wrap;html=1;aspect=fixed;" parent="1" vertex="1">
          <mxGeometry x="680" y="720" width="80" height="80" as="geometry" />
        </mxCell>
        <mxCell id="cghG7LccINdFrMlFdnHV-36" value="remove &lt;br&gt;unwanted" style="text;html=1;align=center;verticalAlign=middle;resizable=0;points=[];autosize=1;strokeColor=none;fillColor=none;" parent="1" vertex="1">
          <mxGeometry x="730" y="660" width="80" height="40" as="geometry" />
        </mxCell>
        <mxCell id="cghG7LccINdFrMlFdnHV-38" value="&lt;h1&gt;Healthcare&lt;br&gt;&lt;/h1&gt;" style="text;html=1;strokeColor=none;fillColor=none;spacing=5;spacingTop=-20;whiteSpace=wrap;overflow=hidden;rounded=0;" parent="1" vertex="1">
          <mxGeometry x="661" y="170" width="190" height="40" as="geometry" />
        </mxCell>
        <mxCell id="cghG7LccINdFrMlFdnHV-39" value="&lt;h1&gt;Friction&lt;br&gt;&lt;/h1&gt;" style="text;html=1;strokeColor=none;fillColor=none;spacing=5;spacingTop=-20;whiteSpace=wrap;overflow=hidden;rounded=0;" parent="1" vertex="1">
          <mxGeometry x="1125" y="170" width="190" height="40" as="geometry" />
        </mxCell>
        <mxCell id="cghG7LccINdFrMlFdnHV-42" value="&lt;h1&gt;Raw&lt;br&gt;&lt;/h1&gt;" style="text;html=1;strokeColor=none;fillColor=none;spacing=5;spacingTop=-20;whiteSpace=wrap;overflow=hidden;rounded=0;" parent="1" vertex="1">
          <mxGeometry x="310" y="275" width="190" height="40" as="geometry" />
        </mxCell>
        <mxCell id="cghG7LccINdFrMlFdnHV-43" value="&lt;h1&gt;Preprocessed&lt;br&gt;&lt;/h1&gt;" style="text;html=1;strokeColor=none;fillColor=none;spacing=5;spacingTop=-20;whiteSpace=wrap;overflow=hidden;rounded=0;" parent="1" vertex="1">
          <mxGeometry x="310" y="510" width="190" height="40" as="geometry" />
        </mxCell>
        <mxCell id="cghG7LccINdFrMlFdnHV-44" value="&lt;h1&gt;Processed&lt;/h1&gt;" style="text;html=1;strokeColor=none;fillColor=none;spacing=5;spacingTop=-20;whiteSpace=wrap;overflow=hidden;rounded=0;" parent="1" vertex="1">
          <mxGeometry x="310" y="740" width="190" height="40" as="geometry" />
        </mxCell>
        <mxCell id="cghG7LccINdFrMlFdnHV-45" value="&lt;h1&gt;Final&lt;/h1&gt;" style="text;html=1;strokeColor=none;fillColor=none;spacing=5;spacingTop=-20;whiteSpace=wrap;overflow=hidden;rounded=0;" parent="1" vertex="1">
          <mxGeometry x="310" y="920" width="190" height="40" as="geometry" />
        </mxCell>
        <mxCell id="cghG7LccINdFrMlFdnHV-49" value="Merge" style="text;html=1;strokeColor=none;fillColor=none;align=center;verticalAlign=middle;whiteSpace=wrap;rounded=0;" parent="1" vertex="1">
          <mxGeometry x="840" y="520" width="60" height="30" as="geometry" />
        </mxCell>
        <mxCell id="cghG7LccINdFrMlFdnHV-51" value="Rasterize &amp;amp; filter" style="text;html=1;strokeColor=none;fillColor=none;align=center;verticalAlign=middle;whiteSpace=wrap;rounded=0;" parent="1" vertex="1">
          <mxGeometry x="1210" y="356.5" width="60" height="30" as="geometry" />
        </mxCell>
        <mxCell id="cghG7LccINdFrMlFdnHV-53" value="Shapiefy" style="text;html=1;align=center;verticalAlign=middle;resizable=0;points=[];autosize=1;strokeColor=none;fillColor=none;" parent="1" vertex="1">
          <mxGeometry x="910" y="361.5" width="70" height="30" as="geometry" />
        </mxCell>
        <mxCell id="cghG7LccINdFrMlFdnHV-55" value="Shapiefy" style="text;html=1;align=center;verticalAlign=middle;resizable=0;points=[];autosize=1;strokeColor=none;fillColor=none;" parent="1" vertex="1">
          <mxGeometry x="550" y="361.5" width="70" height="30" as="geometry" />
        </mxCell>
        <mxCell id="cghG7LccINdFrMlFdnHV-56" value="Refactor&lt;br&gt;&amp;amp; Merge" style="text;html=1;align=center;verticalAlign=middle;resizable=0;points=[];autosize=1;strokeColor=none;fillColor=none;" parent="1" vertex="1">
          <mxGeometry x="673.5" y="356.5" width="70" height="40" as="geometry" />
        </mxCell>
        <mxCell id="cghG7LccINdFrMlFdnHV-57" value="Refactor&lt;br&gt;&amp;amp; Merge" style="text;html=1;align=center;verticalAlign=middle;resizable=0;points=[];autosize=1;strokeColor=none;fillColor=none;" parent="1" vertex="1">
          <mxGeometry x="790" y="356.5" width="70" height="40" as="geometry" />
        </mxCell>
        <mxCell id="3Np43MVFeUav2agzIcJt-1" value="unpaved" style="whiteSpace=wrap;html=1;aspect=fixed;" parent="1" vertex="1">
          <mxGeometry x="1045" y="420" width="80" height="80" as="geometry" />
        </mxCell>
        <mxCell id="3Np43MVFeUav2agzIcJt-4" value="" style="endArrow=classic;html=1;rounded=0;entryX=0.5;entryY=0;entryDx=0;entryDy=0;exitX=0.5;exitY=1;exitDx=0;exitDy=0;" parent="1" source="cghG7LccINdFrMlFdnHV-11" target="3Np43MVFeUav2agzIcJt-1" edge="1">
          <mxGeometry width="50" height="50" relative="1" as="geometry">
            <mxPoint x="970" y="440" as="sourcePoint" />
            <mxPoint x="1020" y="390" as="targetPoint" />
          </mxGeometry>
        </mxCell>
        <mxCell id="3Np43MVFeUav2agzIcJt-5" value="" style="endArrow=classic;html=1;rounded=0;exitX=0.5;exitY=1;exitDx=0;exitDy=0;" parent="1" source="3Np43MVFeUav2agzIcJt-1" edge="1" target="cghG7LccINdFrMlFdnHV-65">
          <mxGeometry width="50" height="50" relative="1" as="geometry">
            <mxPoint x="970" y="440" as="sourcePoint" />
            <mxPoint x="1210" y="550" as="targetPoint" />
          </mxGeometry>
        </mxCell>
        <mxCell id="aQdMV5z1_RwUsmSBzlb9-2" value="" style="endArrow=classic;html=1;rounded=0;exitX=0.5;exitY=1;exitDx=0;exitDy=0;" edge="1" parent="1" source="my6AYqyxt2HDkGoGhjge-8" target="cghG7LccINdFrMlFdnHV-65">
          <mxGeometry width="50" height="50" relative="1" as="geometry">
            <mxPoint x="1210" y="501" as="sourcePoint" />
            <mxPoint x="1210" y="710" as="targetPoint" />
          </mxGeometry>
        </mxCell>
        <mxCell id="cghG7LccINdFrMlFdnHV-48" value="Merge" style="text;html=1;strokeColor=none;fillColor=none;align=center;verticalAlign=middle;whiteSpace=wrap;rounded=0;" parent="1" vertex="1">
          <mxGeometry x="1250" y="590" width="120" height="30" as="geometry" />
        </mxCell>
        <mxCell id="aQdMV5z1_RwUsmSBzlb9-4" value="Rasterize" style="text;html=1;strokeColor=none;fillColor=none;align=center;verticalAlign=middle;whiteSpace=wrap;rounded=0;" vertex="1" parent="1">
          <mxGeometry x="1360" y="356.5" width="60" height="30" as="geometry" />
        </mxCell>
        <mxCell id="aQdMV5z1_RwUsmSBzlb9-5" value="" style="endArrow=classic;html=1;rounded=0;" edge="1" parent="1" target="cghG7LccINdFrMlFdnHV-65">
          <mxGeometry width="50" height="50" relative="1" as="geometry">
            <mxPoint x="1210" y="760" as="sourcePoint" />
            <mxPoint x="1010" y="900" as="targetPoint" />
            <Array as="points">
              <mxPoint x="1210" y="760" />
            </Array>
          </mxGeometry>
        </mxCell>
        <mxCell id="cghG7LccINdFrMlFdnHV-65" value="&lt;div&gt;&lt;b&gt;Friction surface&lt;/b&gt;&lt;/div&gt;(Raster)" style="whiteSpace=wrap;html=1;aspect=fixed;" parent="1" vertex="1">
          <mxGeometry x="1170" y="720" width="80" height="80" as="geometry" />
        </mxCell>
      </root>
    </mxGraphModel>
  </diagram>
</mxfile>
